<?xml version="1.0" encoding="UTF-8" standalone="no"?>
<!DOCTYPE svg PUBLIC "-//W3C//DTD SVG 1.1//EN" "http://www.w3.org/Graphics/SVG/1.1/DTD/svg11.dtd">
<svg xmlns="http://www.w3.org/2000/svg" xml:space="preserve" fill-rule="evenodd" clip-rule="evenodd" viewBox="0 0 72 72">
  <clipPath id="a">
    <path d="M5 5h62v62H5z"/>
  </clipPath>
  <g clip-path="url(#a)">
    <path fill="url(#b)" stroke="url(#c)" stroke-width="1.51" d="M61.956 21.132v29.736c0 6.12-4.968 11.088-11.088 11.088H21.132c-6.12 0-11.088-4.968-11.088-11.088V21.132c0-6.12 4.968-11.088 11.088-11.088h29.736c6.12 0 11.088 4.968 11.088 11.088Z"/>
    <path fill="url(#d)" fill-rule="nonzero" d="M14.362 14.354h23.183L20.032 57.572h-5.67V14.354Z"/>
    <path fill="url(#e)" fill-rule="nonzero" d="M14.362 14.354h23.183L20.032 57.572h-5.67V14.354Z"/>
    <path fill="url(#f)" fill-rule="nonzero" d="M14.362 14.48h9.954l-9.954 23.636V14.48Z"/>
    <path fill="none" stroke="#000" stroke-width="3.78" d="M59.31 21.132v29.736c0 4.659-3.783 8.442-8.442 8.442H21.132c-4.659 0-8.442-3.783-8.442-8.442V21.132c0-4.659 3.783-8.442 8.442-8.442h29.736c4.659 0 8.442 3.783 8.442 8.442Z"/>
    <circle cx="48.348" cy="48.348" r="17.64" fill="url(#g)"/>
    <circle cx="48.348" cy="48.348" r="15.12" fill="#fdce4e"/>
    <circle cx="48.348" cy="48.348" r="15.12" fill="url(#h)"/>
    <path fill="url(#i)" fill-rule="nonzero" d="m30.96 45.45 34.776 5.544-3.024 2.142-29.358-4.41-2.394-3.276Z"/>
    <path fill="url(#j)" fill-rule="nonzero" d="M65.736 50.994 30.96 45.45l3.15-2.016 29.232 4.41 2.394 3.15Z"/>
  </g>
  <defs>
    <linearGradient id="b" x1="0" x2="1" y1="0" y2="0" gradientTransform="matrix(0 42.966 -42.966 0 36 14.58)" gradientUnits="userSpaceOnUse">
      <stop offset="0" stop-color="#ffb07c"/>
      <stop offset=".53" stop-color="#f08366"/>
      <stop offset=".76" stop-color="#e06467"/>
      <stop offset="1" stop-color="#c23f89"/>
    </linearGradient>
    <linearGradient id="c" x1="0" x2="1" y1="0" y2="0" gradientTransform="rotate(88.675 1.82 13.562) scale(49.027)" gradientUnits="userSpaceOnUse">
      <stop offset="0" stop-color="#cfe5eb"/>
      <stop offset=".36" stop-color="#b9cace"/>
      <stop offset="1" stop-color="#767574"/>
    </linearGradient>
    <linearGradient id="d" x1="0" x2="1" y1="0" y2="0" gradientTransform="rotate(90.293 4.98 16.627) scale(45.6233)" gradientUnits="userSpaceOnUse">
      <stop offset="0" stop-color="#ffc393"/>
      <stop offset=".57" stop-color="#f19477" stop-opacity=".21"/>
      <stop offset="1" stop-color="#e5537a" stop-opacity="0"/>
    </linearGradient>
    <linearGradient id="e" x1="0" x2="1" y1="0" y2="0" gradientTransform="rotate(25.758 -33.01 53.352) scale(10.8813)" gradientUnits="userSpaceOnUse">
      <stop offset="0" stop-color="#fec293" stop-opacity=".82"/>
      <stop offset=".6" stop-color="#f3a273" stop-opacity="0"/>
      <stop offset="1" stop-color="#f3a273" stop-opacity="0"/>
    </linearGradient>
    <linearGradient id="f" x1="0" x2="1" y1="0" y2="0" gradientTransform="rotate(90 .02 11.748) scale(27.7831)" gradientUnits="userSpaceOnUse">
      <stop offset="0" stop-color="#ffc593"/>
      <stop offset="1" stop-color="#f0a18a"/>
    </linearGradient>
    <linearGradient id="i" x1="0" x2="1" y1="0" y2="0" gradientTransform="scale(-35.256) rotate(9.462 7.892 -11.995)" gradientUnits="userSpaceOnUse">
      <stop offset="0" stop-color="#ffe7ab"/>
      <stop offset="1" stop-color="#ffe7ac"/>
    </linearGradient>
    <linearGradient id="j" x1="0" x2="1" y1="0" y2="0" gradientTransform="scale(35.256) rotate(9.462 -7.284 5.944)" gradientUnits="userSpaceOnUse">
      <stop offset="0" stop-color="#ebb018"/>
      <stop offset="1" stop-color="#ebb019"/>
    </linearGradient>
    <radialGradient id="g" cx="0" cy="0" r="1" gradientTransform="scale(30.598) rotate(63.329 -.191 1.66)" gradientUnits="userSpaceOnUse">
      <stop offset="0" stop-color="#f6ecce"/>
      <stop offset="1" stop-color="#f6c031"/>
    </radialGradient>
    <radialGradient id="h" cx="0" cy="0" r="1" gradientTransform="rotate(90 0 48.348) scale(15.12)" gradientUnits="userSpaceOnUse">
      <stop offset="0" stop-color="white" stop-opacity=".4"/>
      <stop offset="1" stop-color="white" stop-opacity="0"/>
    </radialGradient>
  </defs>
</svg>
