<?xml version="1.0" encoding="UTF-8" standalone="no"?>
<!DOCTYPE svg PUBLIC "-//W3C//DTD SVG 1.1//EN" "http://www.w3.org/Graphics/SVG/1.1/DTD/svg11.dtd">
<svg width="100%" height="100%" viewBox="0 0 72 72" version="1.1" xmlns="http://www.w3.org/2000/svg" xmlns:xlink="http://www.w3.org/1999/xlink" xml:space="preserve" xmlns:serif="http://www.serif.com/" style="fill-rule:evenodd;clip-rule:evenodd;">
    <g>
        <clipPath id="_clip1">
            <rect x="5" y="5" width="62" height="62"/>
        </clipPath>
        <g clip-path="url(#_clip1)">
            <g>
                <path d="M61.956,21.132L61.956,50.868C61.956,56.988 56.988,61.956 50.868,61.956L21.132,61.956C15.012,61.956 10.044,56.988 10.044,50.868L10.044,21.132C10.044,15.012 15.012,10.044 21.132,10.044L50.868,10.044C56.988,10.044 61.956,15.012 61.956,21.132Z" style="fill:url(#_Linear2);stroke:url(#_Linear3);stroke-width:1.51px;"/>
                <path d="M14.362,14.354L37.545,14.354L20.032,57.572L14.362,57.572L14.362,14.354Z" style="fill:url(#_Linear4);fill-rule:nonzero;"/>
                <path d="M14.362,14.354L37.545,14.354L20.032,57.572L14.362,57.572L14.362,14.354Z" style="fill:url(#_Linear5);fill-rule:nonzero;"/>
                <path d="M14.362,14.48L24.316,14.48L14.362,38.116L14.362,14.48Z" style="fill:url(#_Linear6);fill-rule:nonzero;"/>
                <path d="M59.31,21.132L59.31,50.868C59.31,55.527 55.527,59.31 50.868,59.31L21.132,59.31C16.473,59.31 12.69,55.527 12.69,50.868L12.69,21.132C12.69,16.473 16.473,12.69 21.132,12.69L50.868,12.69C55.527,12.69 59.31,16.473 59.31,21.132Z" style="fill:none;stroke:black;stroke-width:3.78px;"/>
                <circle cx="48.348" cy="48.348" r="17.64" style="fill:url(#_Radial7);"/>
                <circle cx="48.348" cy="48.348" r="15.12" style="fill:rgb(174,170,157);"/>
                <path d="M30.96,45.45L65.736,50.994L62.712,53.136L33.354,48.726L30.96,45.45Z" style="fill:url(#_Linear8);fill-rule:nonzero;"/>
                <path d="M65.736,50.994L30.96,45.45L34.11,43.434L63.342,47.844L65.736,50.994Z" style="fill:url(#_Linear9);fill-rule:nonzero;"/>
            </g>
        </g>
    </g>
    <defs>
        <linearGradient id="_Linear2" x1="0" y1="0" x2="1" y2="0" gradientUnits="userSpaceOnUse" gradientTransform="matrix(2.63091e-15,42.966,-42.966,2.63091e-15,35.9999,14.5798)"><stop offset="0" style="stop-color:rgb(196,188,183);stop-opacity:1"/><stop offset="0.53" style="stop-color:rgb(179,166,163);stop-opacity:1"/><stop offset="0.76" style="stop-color:rgb(171,153,153);stop-opacity:1"/><stop offset="1" style="stop-color:rgb(141,116,130);stop-opacity:1"/></linearGradient>
        <linearGradient id="_Linear3" x1="0" y1="0" x2="1" y2="0" gradientUnits="userSpaceOnUse" gradientTransform="matrix(1.134,49.014,-49.014,1.134,15.3359,11.4298)"><stop offset="0" style="stop-color:rgb(207,229,235);stop-opacity:1"/><stop offset="0.36" style="stop-color:rgb(185,202,206);stop-opacity:1"/><stop offset="1" style="stop-color:rgb(118,117,116);stop-opacity:1"/></linearGradient>
        <linearGradient id="_Linear4" x1="0" y1="0" x2="1" y2="0" gradientUnits="userSpaceOnUse" gradientTransform="matrix(-0.2337,45.6227,-45.6227,-0.2337,21.6315,11.7328)"><stop offset="0" style="stop-color:rgb(206,200,195);stop-opacity:1"/><stop offset="0.57" style="stop-color:rgb(188,176,173);stop-opacity:0.21"/><stop offset="1" style="stop-color:rgb(166,146,151);stop-opacity:0"/></linearGradient>
        <linearGradient id="_Linear5" x1="0" y1="0" x2="1" y2="0" gradientUnits="userSpaceOnUse" gradientTransform="matrix(9.8001,4.7287,-4.7287,9.8001,19.9055,19.6461)"><stop offset="0" style="stop-color:rgb(206,200,195);stop-opacity:0.82"/><stop offset="0.6" style="stop-color:rgb(187,177,171);stop-opacity:0"/><stop offset="1" style="stop-color:rgb(187,177,171);stop-opacity:0"/></linearGradient>
        <linearGradient id="_Linear6" x1="0" y1="0" x2="1" y2="0" gradientUnits="userSpaceOnUse" gradientTransform="matrix(1.70122e-15,27.7831,-27.7831,1.70122e-15,11.767,11.7284)"><stop offset="0" style="stop-color:rgb(206,201,196);stop-opacity:1"/><stop offset="1" style="stop-color:rgb(196,185,182);stop-opacity:1"/></linearGradient>
        <radialGradient id="_Radial7" cx="0" cy="0" r="1" gradientUnits="userSpaceOnUse" gradientTransform="matrix(13.734,27.342,-27.342,13.734,42.1739,33.2278)"><stop offset="0" style="stop-color:rgb(229,227,223);stop-opacity:1"/><stop offset="1" style="stop-color:rgb(158,152,137);stop-opacity:1"/></radialGradient>
        <linearGradient id="_Linear8" x1="0" y1="0" x2="1" y2="0" gradientUnits="userSpaceOnUse" gradientTransform="matrix(-34.776,-5.796,5.796,-34.776,65.7359,51.4977)"><stop offset="0" style="stop-color:rgb(217,215,209);stop-opacity:1"/><stop offset="1" style="stop-color:rgb(218,215,209);stop-opacity:1"/></linearGradient>
        <linearGradient id="_Linear9" x1="0" y1="0" x2="1" y2="0" gradientUnits="userSpaceOnUse" gradientTransform="matrix(34.776,5.796,-5.796,34.776,30.9599,45.0718)"><stop offset="0" style="stop-color:rgb(142,135,117);stop-opacity:1"/><stop offset="1" style="stop-color:rgb(143,135,118);stop-opacity:1"/></linearGradient>
    </defs>
</svg>
